<svg id="Layer_1" data-name="Layer 1" xmlns="http://www.w3.org/2000/svg" xmlns:xlink="http://www.w3.org/1999/xlink" viewBox="0 0 380 115"><defs><style>.cls-1{fill:url(#linear-gradient);}.cls-2{fill:url(#linear-gradient-2);}.cls-3{fill:url(#linear-gradient-3);}.cls-4{fill:url(#linear-gradient-4);}.cls-5{fill:url(#linear-gradient-5);}</style><linearGradient id="linear-gradient" x1="73.85" y1="155.77" x2="69.26" y2="7.18" gradientUnits="userSpaceOnUse"><stop offset="0.01" stop-color="#433443"/><stop offset="0.5" stop-color="#5c495d"/><stop offset="1" stop-color="#79617b"/></linearGradient><linearGradient id="linear-gradient-2" x1="154.71" y1="153.27" x2="150.11" y2="4.68" xlink:href="#linear-gradient"/><linearGradient id="linear-gradient-3" x1="218.28" y1="151.31" x2="213.68" y2="2.71" xlink:href="#linear-gradient"/><linearGradient id="linear-gradient-4" x1="279.9" y1="149.4" x2="275.31" y2="0.81" xlink:href="#linear-gradient"/><linearGradient id="linear-gradient-5" x1="339.59" y1="147.56" x2="335" y2="-1.04" xlink:href="#linear-gradient"/></defs><path class="cls-1" d="M27.56,94.72V93.1c.87,0,1.88,0,3-.15s2.44-.23,3.89-.4A5.1,5.1,0,0,0,37.8,91c.77-.84,1.26-2.33,1.46-4.49l.21-4.64V34.05l-.21-4.64c-.2-2.15-.7-3.67-1.51-4.54a5.49,5.49,0,0,0-3.38-1.62,35.78,35.78,0,0,0-3.94-.35q-1.77,0-3.18-.15V21.13l37.65-.2a106.88,106.88,0,0,1,22.26,2.22q10.44,2.22,19.28,11.31t8.83,25.64q0,15.84-7.92,23.36T90.59,92.85a99.77,99.77,0,0,1-20.54,1.87ZM75,24.06a14.7,14.7,0,0,0-4.39-.81c-2-.13-3.69-.2-5.1-.2H64.3V92.8c.47,0,.91,0,1.31,0s.91.05,1.51.05a45.79,45.79,0,0,0,7-.5,13.4,13.4,0,0,0,6-2.58q2.77-2.07,5.35-11A65.71,65.71,0,0,0,88,60.5,79.85,79.85,0,0,0,84.84,37Q81.66,26.68,75,24.06Z"/><path class="cls-2" d="M146.06,54.34a14.82,14.82,0,0,1,5.31-6.26q3.4-2.22,9.73-2.22a20.93,20.93,0,0,1,12.38,3.79q5.39,3.78,5.38,9.74V82.1l.1,4.64a12.22,12.22,0,0,0,.61,4.8c.4.77,1.58,1.26,3.53,1.46l2.22.1v1.62H154.07V93.1l1.31-.1c1.8,0,2.9-.4,3.3-1.21a13.52,13.52,0,0,0,.6-5.05l.1-4.64V61.51l-.1-4.14c0-2.83-.47-4.84-1.4-6.06a5,5,0,0,0-4.21-1.81q-3.4,0-4.86,2.22a24.82,24.82,0,0,0-2.35,4.54V82.1l.1,4.64c0,2.63.18,4.33.55,5.1S148.6,93,150.47,93l1.3.1v1.62H120.42V93.1l2.32-.1c2-.2,3.13-.67,3.53-1.41s.61-2.36.61-4.85l.1-4.64V32.24l-.1-4.14a6.23,6.23,0,0,0-.86-3.79c-.57-.7-1.8-1.16-3.68-1.36l-3.84-.2V21.13h28V45.06c0,2.22,0,4.08-.1,5.6S146.19,53.4,146.06,54.34Z"/><path class="cls-3" d="M238.88,89.77c1.59,0,2.7-1,3.33-3a23.86,23.86,0,0,0,.95-7.15h1.41q0,8.91-3.18,11.74a16.19,16.19,0,0,1-5.7,3.6,23.14,23.14,0,0,1-6.46.76,13.67,13.67,0,0,1-7.72-2.23,8.89,8.89,0,0,1-4.09-6,11.59,11.59,0,0,1-5.4,6.14,20.66,20.66,0,0,1-9.84,2,15.34,15.34,0,0,1-10.5-3.54q-4-3.54-4-9.81a12.43,12.43,0,0,1,2.53-8.15,10.49,10.49,0,0,1,5.14-3.79,51.93,51.93,0,0,1,8.08-1.21,56.52,56.52,0,0,0,8-1.17,12.53,12.53,0,0,0,3.69-1.41,2.91,2.91,0,0,0,1.11-2.58l-.1-9.21a11.94,11.94,0,0,0-1-5.66c-.67-1.15-2.07-1.72-4.2-1.72a5.84,5.84,0,0,0-3.35.91,2.74,2.74,0,0,0-1.34,2.33c0,.75.71,1.68,2.15,2.79a6,6,0,0,1,2.15,5,7.24,7.24,0,0,1-2.79,5.58q-2.78,2.44-9.06,2.44a10,10,0,0,1-6-1.88,5.87,5.87,0,0,1-2.58-5q0-6.28,7-10a35,35,0,0,1,16.74-3.76,33.64,33.64,0,0,1,15.07,3.4q6.89,3.41,6.88,10.49V83a15.89,15.89,0,0,0,.6,5A2.32,2.32,0,0,0,238.88,89.77Zm-22.67-3V67.46l-.3-.1a8.31,8.31,0,0,1-3.35,2.27,10.6,10.6,0,0,0-3.39,2.07,8.2,8.2,0,0,0-1.5,3.89,31.81,31.81,0,0,0-.55,5.9,30.6,30.6,0,0,0,.7,7.27c.47,1.82,1.53,2.73,3.2,2.73A4.49,4.49,0,0,0,214.36,90,6.94,6.94,0,0,0,216.21,86.74Z"/><path class="cls-4" d="M269.81,73.16q5.31-5.43,10.64-11t7.38-8.06c1.38-1.68,2.06-3,2.06-3.83a1.23,1.23,0,0,0-.65-1.16,5.06,5.06,0,0,0-1.87-.45l-3.43-.2V46.87H303v1.62c-.68,0-1.34,0-2,0a18.13,18.13,0,0,0-2.64.4,9.43,9.43,0,0,0-2.8,1,24.62,24.62,0,0,0-3.3,2.57c-1.45,1.27-2.7,2.45-3.75,3.52s-2,2.08-2.9,3q5,8.06,10.1,16.37t7.52,11.88a21.65,21.65,0,0,0,3.53,4.48A6.61,6.61,0,0,0,310,93l2.42.1v1.62H278.22V93.1l2-.1c1.74,0,2.61-.54,2.61-1.61a8.08,8.08,0,0,0-1.35-3.32c-.91-1.55-2.29-3.79-4.16-6.75s-3.67-5.78-5.41-8.46l-1.9,2v7.25l.1,4.64c0,2.62.18,4.31.55,5.08S272.14,93,274,93l1.91.1v1.62H244V93.1l2.32-.1c2-.2,3.13-.67,3.53-1.41s.61-2.36.61-4.85l.1-4.64V32.24l-.1-4.14a6.23,6.23,0,0,0-.86-3.79c-.57-.7-1.8-1.16-3.69-1.36l-3.83-.2V21.13h28V66.49Z"/><path class="cls-5" d="M360.31,89.77c1.59,0,2.7-1,3.33-3a23.86,23.86,0,0,0,.95-7.15H366q0,8.91-3.18,11.74a16.19,16.19,0,0,1-5.7,3.6,23.14,23.14,0,0,1-6.46.76,13.65,13.65,0,0,1-7.72-2.23,8.89,8.89,0,0,1-4.09-6,11.59,11.59,0,0,1-5.4,6.14,20.72,20.72,0,0,1-9.84,2,15.34,15.34,0,0,1-10.5-3.54q-4-3.54-4-9.81a12.43,12.43,0,0,1,2.53-8.15,10.49,10.49,0,0,1,5.14-3.79,51.74,51.74,0,0,1,8.08-1.21,56.52,56.52,0,0,0,8-1.17,12.53,12.53,0,0,0,3.69-1.41,2.91,2.91,0,0,0,1.11-2.58l-.1-9.21a11.94,11.94,0,0,0-1-5.66c-.67-1.15-2.07-1.72-4.2-1.72a5.84,5.84,0,0,0-3.35.91,2.73,2.73,0,0,0-1.35,2.33q0,1.13,2.16,2.79a6,6,0,0,1,2.15,5,7.24,7.24,0,0,1-2.79,5.58c-1.86,1.63-4.87,2.44-9.06,2.44a10,10,0,0,1-6-1.88,5.88,5.88,0,0,1-2.59-5q0-6.28,7-10a35,35,0,0,1,16.74-3.76,33.64,33.64,0,0,1,15.07,3.4q6.89,3.41,6.88,10.49V83a15.89,15.89,0,0,0,.6,5A2.32,2.32,0,0,0,360.31,89.77Zm-22.67-3V67.46l-.3-.1A8.31,8.31,0,0,1,334,69.63a10.6,10.6,0,0,0-3.39,2.07,8.2,8.2,0,0,0-1.5,3.89,31.81,31.81,0,0,0-.55,5.9,30.6,30.6,0,0,0,.7,7.27c.47,1.82,1.53,2.73,3.2,2.73A4.49,4.49,0,0,0,335.79,90,6.94,6.94,0,0,0,337.64,86.74Z"/></svg>