<svg id="Layer_1" data-name="Layer 1" xmlns="http://www.w3.org/2000/svg" xmlns:xlink="http://www.w3.org/1999/xlink" viewBox="0 0 366 104"><defs><style>.cls-1{fill:url(#linear-gradient);}.cls-2{fill:url(#linear-gradient-2);}.cls-3{fill:url(#linear-gradient-3);}.cls-4{fill:url(#linear-gradient-4);}.cls-5{fill:url(#linear-gradient-5);}.cls-6{fill:url(#linear-gradient-6);}</style><linearGradient id="linear-gradient" x1="51.17" y1="68.92" x2="46.57" y2="-79.68" gradientUnits="userSpaceOnUse"><stop offset="0.01" stop-color="#433443"/><stop offset="0.5" stop-color="#5c495d"/><stop offset="1" stop-color="#79617b"/></linearGradient><linearGradient id="linear-gradient-2" x1="119.99" y1="66.79" x2="115.39" y2="-81.81" xlink:href="#linear-gradient"/><linearGradient id="linear-gradient-3" x1="175.84" y1="65.06" x2="171.24" y2="-83.53" xlink:href="#linear-gradient"/><linearGradient id="linear-gradient-4" x1="243.06" y1="62.98" x2="238.47" y2="-85.61" xlink:href="#linear-gradient"/><linearGradient id="linear-gradient-5" x1="282.59" y1="61.76" x2="278" y2="-86.83" xlink:href="#linear-gradient"/><linearGradient id="linear-gradient-6" x1="331.98" y1="60.23" x2="327.39" y2="-88.36" xlink:href="#linear-gradient"/></defs><path class="cls-1" d="M35.11,82.18l.56-22.77q0-20-3.74-30.25t-11-10.27q-5.93,0-11.27,8.38l-1.48-1q8.28-12,15.65-12,9.47,0,14.24,12.47,4.11,10.68,4.11,34.71l.1,4.75L59.16,26.27l3.16-1q.54,5.9,1.36,11.86l.65,4.82q1.26,9.49,2.54,26.67L74,52.48q8.16-18.7,8.17-23.61c0-1.3-1.25-1.95-3.73-1.95H77.22l.43-2.33h13.8l-.4,2.33H88L63.84,81.22l-3.36,1,.1-4.71a218.36,218.36,0,0,0-3.36-39.83L38.5,81.22Z"/><path class="cls-2" d="M125.31,60.44h-.6a53.05,53.05,0,0,1-8.95,15.67q-5.24,6.08-9.81,6.07-6.95,0-7-10.1,0-11.14,7.65-21.82,7.91-11.05,19.3-11c3.14,0,6.43.15,9.85.45L133.43,51l-3.19,18.9a44.88,44.88,0,0,0-.76,5.74c0,1.61.65,2.41,1.94,2.41q3.3,0,9.82-8.41l-.59,3.56q-7.23,9-13,9-4.78,0-4.78-5.78a44.18,44.18,0,0,1,.79-6.51ZM128,45.14a17.74,17.74,0,0,0-8.2-2.15q-6,0-9.58,8.8Q106,62.2,106,70.51q0,6,3,6,2.83,0,8.15-6.9a78.94,78.94,0,0,0,9.33-15.79Z"/><path class="cls-3" d="M157,81.68l2.43-11.79L162.66,51a43.6,43.6,0,0,0,.76-5.74c0-1.58-.65-2.37-1.94-2.37q-3.24,0-9.82,8.41l.59-3.52q7.19-9,12.95-9,4.74,0,4.74,5.74a45.9,45.9,0,0,1-.75,6.5l-1.62,9.45h.5a57.84,57.84,0,0,1,9.3-15.74q5.19-6,9.67-6,5.42,0,5.41,7a33.79,33.79,0,0,1-.56,5.51l-3.2,18.67a46.91,46.91,0,0,0-.76,5.74c0,1.61.65,2.41,1.95,2.41q3.28,0,9.85-8.4l-.63,3.55q-7.18,9-12.95,9c-3.16,0-4.74-1.93-4.74-5.77a43.8,43.8,0,0,1,.79-6.5l3.2-18.73a21.56,21.56,0,0,0,.39-3.67c0-2.07-.66-3.1-2-3.1q-6.28,0-17.46,23.15L164,81.22Z"/><path class="cls-4" d="M238.65,60.44h-.6a54.17,54.17,0,0,1-9,15.69q-5.2,6-9.75,6.05-7,0-7-10.14a35.08,35.08,0,0,1,3.41-14.43A39.77,39.77,0,0,1,224.54,45a19.55,19.55,0,0,1,7.25-4.58,36.18,36.18,0,0,1,10.51-1.16,55,55,0,0,1,4.06-11.58,27.33,27.33,0,0,1,5.93-7.48A20.83,20.83,0,0,1,272.61,15l-4.51,5.44a15.3,15.3,0,0,0-6.65-2,8.68,8.68,0,0,0-7.95,4.45q-2.66,4.47-4.77,16.71l-5.18,30.3a45.67,45.67,0,0,0-.79,5.67c0,1.66.65,2.48,2,2.48q3.28,0,9.85-8.41l-.63,3.56q-7.19,9-12.91,9-4.78,0-4.78-5.78a44.94,44.94,0,0,1,.79-6.51Zm2.63-15.3A17.56,17.56,0,0,0,233,43q-6,0-9.55,8.8-4.25,10.41-4.25,18.72,0,6,3.06,6,2.83,0,8.16-6.92a79.9,79.9,0,0,0,9.34-15.81Z"/><path class="cls-5" d="M296.9,70.74l-.49,2.94q-10.49,8.5-17.86,8.5A9.11,9.11,0,0,1,271,78.37,15.66,15.66,0,0,1,268,68.53a33.18,33.18,0,0,1,7.12-20.28q7.11-9.51,15.19-9.5A5.75,5.75,0,0,1,295.09,41a9.31,9.31,0,0,1,1.81,6q0,7.34-6.45,12.61A23.66,23.66,0,0,1,275,64.88l0,1.72q0,11.18,7.05,11.18Q288.15,77.78,296.9,70.74Zm-21.81-8.19q7.38-.69,11.53-4.42a12.4,12.4,0,0,0,4.16-9.67q0-5.85-3.66-5.85-4,0-7.65,6.1A31.82,31.82,0,0,0,275.09,62.55Z"/><path class="cls-6" d="M317.37,81.68l2.44-11.77L323,51.21a28.89,28.89,0,0,0,.5-4.89c0-2.19-.66-3.29-2-3.29q-3.5,0-10,8.64l.59-3.4q7.62-9.52,13.21-9.52,4.76,0,4.75,6.3a35.93,35.93,0,0,1-.6,6.2l-1.58,9.21h.43a55.12,55.12,0,0,1,9.28-15.64q5.36-6.07,9.8-6.07a7.29,7.29,0,0,1,4.12,1.19l-4.39,6.92a5.8,5.8,0,0,0-3.29-1.49q-6.42,0-17.1,21.9l-2.41,14Z"/></svg>