<svg id="Layer_1" data-name="Layer 1" xmlns="http://www.w3.org/2000/svg" xmlns:xlink="http://www.w3.org/1999/xlink" viewBox="0 0 184 202"><defs><style>.cls-1{fill:url(#linear-gradient);}.cls-2{fill:url(#linear-gradient-2);}.cls-3{fill:url(#linear-gradient-3);}.cls-4{fill:url(#linear-gradient-4);}.cls-5{fill:url(#linear-gradient-5);}.cls-6{fill:url(#linear-gradient-6);}.cls-7{fill:url(#linear-gradient-7);}.cls-8{fill:url(#linear-gradient-8);}.cls-9{fill:url(#linear-gradient-9);}.cls-10{fill:url(#linear-gradient-10);}.cls-11{fill:url(#linear-gradient-11);}.cls-12{fill:url(#linear-gradient-12);}.cls-13{fill:url(#linear-gradient-13);}.cls-14{fill:url(#linear-gradient-14);}.cls-15{fill:url(#linear-gradient-15);}.cls-16{fill:url(#linear-gradient-16);}.cls-17{fill:url(#linear-gradient-17);}.cls-18{fill:url(#linear-gradient-18);}.cls-19{fill:url(#linear-gradient-19);}.cls-20{fill:url(#linear-gradient-20);}.cls-21{fill:url(#linear-gradient-21);}.cls-22{fill:url(#linear-gradient-22);}.cls-23{fill:url(#linear-gradient-23);}.cls-24{fill:url(#linear-gradient-24);}.cls-25{fill:url(#linear-gradient-25);}.cls-26{fill:url(#linear-gradient-26);}.cls-27{fill:url(#linear-gradient-27);}.cls-28{fill:url(#linear-gradient-28);}.cls-29{fill:url(#linear-gradient-29);}.cls-30{fill:url(#linear-gradient-30);}.cls-31{fill:url(#linear-gradient-31);}.cls-32{fill:url(#linear-gradient-32);}.cls-33{fill:url(#linear-gradient-33);}.cls-34{fill:url(#linear-gradient-34);}.cls-35{fill:url(#linear-gradient-35);}.cls-36{fill:url(#linear-gradient-36);}.cls-37{fill:url(#linear-gradient-37);}.cls-38{fill:url(#linear-gradient-38);}.cls-39{fill:url(#linear-gradient-39);}.cls-40{fill:url(#linear-gradient-40);}.cls-41{fill:url(#linear-gradient-41);}.cls-42{fill:url(#linear-gradient-42);}.cls-43{fill:url(#linear-gradient-43);}.cls-44{fill:url(#linear-gradient-44);}.cls-45{fill:url(#linear-gradient-45);}.cls-46{fill:url(#linear-gradient-46);}.cls-47{fill:url(#linear-gradient-47);}.cls-48{fill:url(#linear-gradient-48);}.cls-49{fill:url(#linear-gradient-49);}.cls-50{fill:url(#linear-gradient-50);}.cls-51{fill:url(#linear-gradient-51);}.cls-52{fill:url(#linear-gradient-52);}.cls-53{fill:url(#linear-gradient-53);}.cls-54{fill:url(#linear-gradient-54);}.cls-55{fill:url(#linear-gradient-55);}.cls-56{fill:url(#linear-gradient-56);}.cls-57{fill:url(#linear-gradient-57);}.cls-58{fill:url(#linear-gradient-58);}.cls-59{fill:url(#linear-gradient-59);}.cls-60{fill:url(#linear-gradient-60);}.cls-61{fill:url(#linear-gradient-61);}.cls-62{fill:url(#linear-gradient-62);}.cls-63{fill:url(#linear-gradient-63);}.cls-64{fill:url(#linear-gradient-64);}.cls-65{fill:url(#linear-gradient-65);}.cls-66{fill:url(#linear-gradient-66);}.cls-67{fill:url(#linear-gradient-67);}.cls-68{fill:url(#linear-gradient-68);}.cls-69{fill:url(#linear-gradient-69);}.cls-70{fill:url(#linear-gradient-70);}.cls-71{fill:url(#linear-gradient-71);}.cls-72{fill:url(#linear-gradient-72);}.cls-73{fill:url(#linear-gradient-73);}.cls-74{fill:url(#linear-gradient-74);}.cls-75{fill:url(#linear-gradient-75);}.cls-76{fill:url(#linear-gradient-76);}.cls-77{fill:url(#linear-gradient-77);}.cls-78{fill:url(#linear-gradient-78);}.cls-79{fill:url(#linear-gradient-79);}.cls-80{fill:url(#linear-gradient-80);}.cls-81{fill:url(#linear-gradient-81);}.cls-82{fill:url(#linear-gradient-82);}.cls-83{fill:url(#linear-gradient-83);}</style><linearGradient id="linear-gradient" x1="185.62" y1="183.05" x2="26.3" y2="-1.8" gradientUnits="userSpaceOnUse"><stop offset="0" stop-color="#c9bbca"/><stop offset="0.29" stop-color="#9f909f"/><stop offset="0.77" stop-color="#5d4e5d"/><stop offset="0.99" stop-color="#433443"/></linearGradient><linearGradient id="linear-gradient-2" x1="204.43" y1="166.84" x2="45.11" y2="-18.01" xlink:href="#linear-gradient"/><linearGradient id="linear-gradient-3" x1="165.61" y1="200.3" x2="6.29" y2="15.45" xlink:href="#linear-gradient"/><linearGradient id="linear-gradient-4" x1="232.75" y1="142.43" x2="73.44" y2="-42.42" xlink:href="#linear-gradient"/><linearGradient id="linear-gradient-5" x1="236.92" y1="138.84" x2="77.6" y2="-46.01" xlink:href="#linear-gradient"/><linearGradient id="linear-gradient-6" x1="231.3" y1="143.68" x2="71.98" y2="-41.17" xlink:href="#linear-gradient"/><linearGradient id="linear-gradient-7" x1="236.35" y1="139.33" x2="77.03" y2="-45.52" xlink:href="#linear-gradient"/><linearGradient id="linear-gradient-8" x1="131.27" y1="229.9" x2="-28.05" y2="45.04" xlink:href="#linear-gradient"/><linearGradient id="linear-gradient-9" x1="127.59" y1="233.06" x2="-31.73" y2="48.21" xlink:href="#linear-gradient"/><linearGradient id="linear-gradient-10" x1="132.78" y1="228.6" x2="-26.54" y2="43.75" xlink:href="#linear-gradient"/><linearGradient id="linear-gradient-11" x1="122.61" y1="237.36" x2="-36.71" y2="52.51" xlink:href="#linear-gradient"/><linearGradient id="linear-gradient-12" x1="122.2" y1="237.71" x2="-37.12" y2="52.86" xlink:href="#linear-gradient"/><linearGradient id="linear-gradient-13" x1="142.5" y1="220.21" x2="-16.82" y2="35.36" xlink:href="#linear-gradient"/><linearGradient id="linear-gradient-14" x1="128.41" y1="232.36" x2="-30.91" y2="47.51" xlink:href="#linear-gradient"/><linearGradient id="linear-gradient-15" x1="117.03" y1="242.17" x2="-42.29" y2="57.32" xlink:href="#linear-gradient"/><linearGradient id="linear-gradient-16" x1="129.25" y1="231.64" x2="-30.07" y2="46.79" xlink:href="#linear-gradient"/><linearGradient id="linear-gradient-17" x1="127.26" y1="233.35" x2="-32.06" y2="48.5" xlink:href="#linear-gradient"/><linearGradient id="linear-gradient-18" x1="125.32" y1="235.02" x2="-34" y2="50.17" xlink:href="#linear-gradient"/><linearGradient id="linear-gradient-19" x1="123.68" y1="236.43" x2="-35.64" y2="51.58" xlink:href="#linear-gradient"/><linearGradient id="linear-gradient-20" x1="141.3" y1="221.25" x2="-18.02" y2="36.4" xlink:href="#linear-gradient"/><linearGradient id="linear-gradient-21" x1="145.05" y1="218.01" x2="-14.26" y2="33.16" xlink:href="#linear-gradient"/><linearGradient id="linear-gradient-22" x1="133.14" y1="228.28" x2="-26.18" y2="43.43" xlink:href="#linear-gradient"/><linearGradient id="linear-gradient-23" x1="138.25" y1="223.88" x2="-21.07" y2="39.03" xlink:href="#linear-gradient"/><linearGradient id="linear-gradient-24" x1="112.21" y1="246.33" x2="-47.11" y2="61.47" xlink:href="#linear-gradient"/><linearGradient id="linear-gradient-25" x1="159.21" y1="205.81" x2="-0.11" y2="20.96" xlink:href="#linear-gradient"/><linearGradient id="linear-gradient-26" x1="141.53" y1="221.05" x2="-17.78" y2="36.2" xlink:href="#linear-gradient"/><linearGradient id="linear-gradient-27" x1="153.67" y1="210.59" x2="-5.65" y2="25.74" xlink:href="#linear-gradient"/><linearGradient id="linear-gradient-28" x1="164" y1="201.69" x2="4.68" y2="16.83" xlink:href="#linear-gradient"/><linearGradient id="linear-gradient-29" x1="133.07" y1="228.34" x2="-26.25" y2="43.49" xlink:href="#linear-gradient"/><linearGradient id="linear-gradient-30" x1="197.31" y1="172.98" x2="37.99" y2="-11.88" xlink:href="#linear-gradient"/><linearGradient id="linear-gradient-31" x1="167.33" y1="198.81" x2="8.02" y2="13.96" xlink:href="#linear-gradient"/><linearGradient id="linear-gradient-32" x1="124.29" y1="235.91" x2="-35.03" y2="51.06" xlink:href="#linear-gradient"/><linearGradient id="linear-gradient-33" x1="142.18" y1="220.49" x2="-17.14" y2="35.64" xlink:href="#linear-gradient"/><linearGradient id="linear-gradient-34" x1="144.72" y1="218.3" x2="-14.6" y2="33.45" xlink:href="#linear-gradient"/><linearGradient id="linear-gradient-35" x1="119.19" y1="240.31" x2="-40.13" y2="55.46" xlink:href="#linear-gradient"/><linearGradient id="linear-gradient-36" x1="144.52" y1="218.48" x2="-14.8" y2="33.63" xlink:href="#linear-gradient"/><linearGradient id="linear-gradient-37" x1="108.23" y1="249.75" x2="-51.09" y2="64.9" xlink:href="#linear-gradient"/><linearGradient id="linear-gradient-38" x1="105.88" y1="251.78" x2="-53.44" y2="66.93" xlink:href="#linear-gradient"/><linearGradient id="linear-gradient-39" x1="113.65" y1="245.08" x2="-45.66" y2="60.23" xlink:href="#linear-gradient"/><linearGradient id="linear-gradient-40" x1="148.5" y1="215.05" x2="-10.82" y2="30.19" xlink:href="#linear-gradient"/><linearGradient id="linear-gradient-41" x1="105.97" y1="251.7" x2="-53.35" y2="66.85" xlink:href="#linear-gradient"/><linearGradient id="linear-gradient-42" x1="108.9" y1="249.17" x2="-50.42" y2="64.32" xlink:href="#linear-gradient"/><linearGradient id="linear-gradient-43" x1="131.05" y1="230.09" x2="-28.27" y2="45.23" xlink:href="#linear-gradient"/><linearGradient id="linear-gradient-44" x1="149.46" y1="214.22" x2="-9.86" y2="29.37" xlink:href="#linear-gradient"/><linearGradient id="linear-gradient-45" x1="154.41" y1="209.95" x2="-4.91" y2="25.1" xlink:href="#linear-gradient"/><linearGradient id="linear-gradient-46" x1="144.96" y1="218.09" x2="-14.36" y2="33.24" xlink:href="#linear-gradient"/><linearGradient id="linear-gradient-47" x1="159.69" y1="205.4" x2="0.37" y2="20.55" xlink:href="#linear-gradient"/><linearGradient id="linear-gradient-48" x1="165.17" y1="200.68" x2="5.85" y2="15.83" xlink:href="#linear-gradient"/><linearGradient id="linear-gradient-49" x1="153.09" y1="211.09" x2="-6.23" y2="26.24" xlink:href="#linear-gradient"/><linearGradient id="linear-gradient-50" x1="137.7" y1="224.35" x2="-21.62" y2="39.5" xlink:href="#linear-gradient"/><linearGradient id="linear-gradient-51" x1="143.57" y1="219.29" x2="-15.75" y2="34.44" xlink:href="#linear-gradient"/><linearGradient id="linear-gradient-52" x1="141.01" y1="221.5" x2="-18.31" y2="36.65" xlink:href="#linear-gradient"/><linearGradient id="linear-gradient-53" x1="176.15" y1="191.21" x2="16.84" y2="6.36" xlink:href="#linear-gradient"/><linearGradient id="linear-gradient-54" x1="196.97" y1="173.27" x2="37.65" y2="-11.58" xlink:href="#linear-gradient"/><linearGradient id="linear-gradient-55" x1="186.23" y1="182.52" x2="26.91" y2="-2.33" xlink:href="#linear-gradient"/><linearGradient id="linear-gradient-56" x1="190.58" y1="178.78" x2="31.26" y2="-6.07" xlink:href="#linear-gradient"/><linearGradient id="linear-gradient-57" x1="194.25" y1="175.62" x2="34.93" y2="-9.23" xlink:href="#linear-gradient"/><linearGradient id="linear-gradient-58" x1="181.38" y1="186.71" x2="22.06" y2="1.86" xlink:href="#linear-gradient"/><linearGradient id="linear-gradient-59" x1="198.5" y1="171.95" x2="39.18" y2="-12.9" xlink:href="#linear-gradient"/><linearGradient id="linear-gradient-60" x1="198.65" y1="171.82" x2="39.33" y2="-13.03" xlink:href="#linear-gradient"/><linearGradient id="linear-gradient-61" x1="138.01" y1="224.09" x2="-21.31" y2="39.24" xlink:href="#linear-gradient"/><linearGradient id="linear-gradient-62" x1="170.72" y1="195.9" x2="11.4" y2="11.05" xlink:href="#linear-gradient"/><linearGradient id="linear-gradient-63" x1="151.11" y1="212.79" x2="-8.2" y2="27.94" xlink:href="#linear-gradient"/><linearGradient id="linear-gradient-64" x1="125.19" y1="235.14" x2="-34.13" y2="50.28" xlink:href="#linear-gradient"/><linearGradient id="linear-gradient-65" x1="133.49" y1="227.98" x2="-25.83" y2="43.13" xlink:href="#linear-gradient"/><linearGradient id="linear-gradient-66" x1="135.11" y1="226.58" x2="-24.21" y2="41.73" xlink:href="#linear-gradient"/><linearGradient id="linear-gradient-67" x1="148.8" y1="214.78" x2="-10.52" y2="29.93" xlink:href="#linear-gradient"/><linearGradient id="linear-gradient-68" x1="154.84" y1="209.58" x2="-4.48" y2="24.73" xlink:href="#linear-gradient"/><linearGradient id="linear-gradient-69" x1="122.33" y1="237.6" x2="-36.99" y2="52.75" xlink:href="#linear-gradient"/><linearGradient id="linear-gradient-70" x1="133.36" y1="228.1" x2="-25.96" y2="43.25" xlink:href="#linear-gradient"/><linearGradient id="linear-gradient-71" x1="132.85" y1="228.53" x2="-26.47" y2="43.68" xlink:href="#linear-gradient"/><linearGradient id="linear-gradient-72" x1="128.49" y1="232.29" x2="-30.83" y2="47.44" xlink:href="#linear-gradient"/><linearGradient id="linear-gradient-73" x1="123.12" y1="236.92" x2="-36.2" y2="52.07" xlink:href="#linear-gradient"/><linearGradient id="linear-gradient-74" x1="132.71" y1="228.65" x2="-26.61" y2="43.8" xlink:href="#linear-gradient"/><linearGradient id="linear-gradient-75" x1="144.26" y1="218.7" x2="-15.06" y2="33.84" xlink:href="#linear-gradient"/><linearGradient id="linear-gradient-76" x1="156.36" y1="208.27" x2="-2.96" y2="23.42" xlink:href="#linear-gradient"/><linearGradient id="linear-gradient-77" x1="155.7" y1="208.84" x2="-3.62" y2="23.99" xlink:href="#linear-gradient"/><linearGradient id="linear-gradient-78" x1="143.71" y1="219.17" x2="-15.61" y2="34.32" xlink:href="#linear-gradient"/><linearGradient id="linear-gradient-79" x1="140.48" y1="221.95" x2="-18.83" y2="37.1" xlink:href="#linear-gradient"/><linearGradient id="linear-gradient-80" x1="146.01" y1="217.19" x2="-13.31" y2="32.34" xlink:href="#linear-gradient"/><linearGradient id="linear-gradient-81" x1="142.07" y1="220.59" x2="-17.25" y2="35.74" xlink:href="#linear-gradient"/><linearGradient id="linear-gradient-82" x1="136.04" y1="225.79" x2="-23.28" y2="40.94" xlink:href="#linear-gradient"/><linearGradient id="linear-gradient-83" x1="183.1" y1="185.22" x2="23.78" y2="0.37" xlink:href="#linear-gradient"/></defs><path class="cls-1" d="M139,76.9a67.89,67.89,0,0,1-.43,7.74H104.49c.22-2.4.31-4.81.31-7.25a100,100,0,0,0-4-29.46q-4-13-12.35-16.3a18.58,18.58,0,0,0-5.51-1c-2.5-.17-4.63-.25-6.41-.25H75V84.64H43.84V44.19l-.25-5.84q-.39-4.05-1.9-5.69a6.93,6.93,0,0,0-4.25-2,43.31,43.31,0,0,0-4.94-.43c-1.48-.05-2.81-.11-4-.2V28l47.28-.24a134.2,134.2,0,0,1,28,2.78,40.58,40.58,0,0,1,9.4,3.24l-1.64,2,1.41-.52-.16.39a18.44,18.44,0,0,0-.23,13.22c.27.82.6,1.58.92,2.31.13.3.26.6.38.9l1,2.41,2.52-.63.15,0,.72-.18,2.36,8.32,1.39-9,1.7-3.39.53,8.83,2.14-5.56a15.64,15.64,0,0,0,4.16,4.43,19.78,19.78,0,0,0,4,2.27,23,23,0,0,0,2.45.92A58.37,58.37,0,0,1,139,76.9Z"/><path class="cls-2" d="M159.22,92.74v-1.5H135.13v1.5c.81.06,1.68.11,2.62.15a23.64,23.64,0,0,1,3,.28,5.34,5.34,0,0,1,2.71,1.17,3.76,3.76,0,0,1,1.12,3.07,18.37,18.37,0,0,1-.93,5.27q-.93,3-4,11.21c-.09.22-.16.44-.24.65.36.08.74.19,1.12.3s.54.17.81.28l3.29-8.75,2.81-7.19a9.8,9.8,0,0,1,3-4.28,10.53,10.53,0,0,1,4.67-1.68Z"/><path class="cls-3" d="M117.17,159.68h7.47l4.59-12.25a74.1,74.1,0,0,1-6.67-9.12c-.18-.33-.36-.66-.55-1l-.31-.6A14.57,14.57,0,0,1,124.31,119a17.57,17.57,0,0,1,1.61-1.43c-.88-2.42-1.63-4.54-2.28-6.35-1.12-3.14-2.09-6-2.93-8.54a20.61,20.61,0,0,1-1.26-6c0-1.55.4-2.48,1.21-2.8a18.31,18.31,0,0,1,3-.79,16.11,16.11,0,0,1,2.44-.33h1.3v-1.5H86.31v1.5l2.89.38c1.92.31,3.19.9,3.77,1.78a32.45,32.45,0,0,1,2.21,4L99,108.81l-9.34,24.54c-.8-2.18-1.83-4.91-3.07-8.21s-2.66-7.1-4.2-11.39-2.85-8-3.89-11A23.65,23.65,0,0,1,77,96.2a2.57,2.57,0,0,1,.89-2.29,7.49,7.49,0,0,1,3-.89l3-.28v-1.5H43.55v1.5l3.26.38a5.46,5.46,0,0,1,3.51,1.53,17.78,17.78,0,0,1,2.57,4.25l2.89,7.29,19.06,53.49h7.49l17.84-48.17Z"/><path class="cls-4" d="M168.86,25.54A16,16,0,0,0,165.94,21a12.63,12.63,0,0,0-9.53-4.37h-.15a12.66,12.66,0,0,0-8.21,3.28l-.37.28a15.15,15.15,0,0,1,3.94-3.55c-4.89,1.32-8.72,3.85-10.27,9a12.42,12.42,0,0,1,5.37-9.39l-.09-.13-2.71,1c.57-.71,1.06-1.36,1.61-2A12.21,12.21,0,0,1,150,11.88h-2.84a13.55,13.55,0,0,1,4.49-2.52c0-.06,0-.08,0-.08a9.58,9.58,0,0,0-4.38-1.11,7.89,7.89,0,0,0-6.6,3.51,11.31,11.31,0,0,0-1.93,5.23c-.11.75-.15,1.51-.21,2.26h-.18c0-.74,0-1.5,0-2.25s.1-1.46.15-2.19a16.17,16.17,0,0,0-1.44,6,17.87,17.87,0,0,0-8.63-4.95,21.4,21.4,0,0,1,4.36,3.42c-.95-.62-1.8-1.23-2.72-1.74a12.76,12.76,0,0,0-6.41-1.84,11.93,11.93,0,0,0-1.56.11A9.65,9.65,0,0,0,114.26,24,15.37,15.37,0,0,1,120,21.62a8.33,8.33,0,0,0-2.18,2.69,13.62,13.62,0,0,1,7.39-1.95c.49,0,1,0,1.5.05L124,24.17l.11.15a13.58,13.58,0,0,1,4.18-.68,15,15,0,0,1,7.88,2.41,15.1,15.1,0,0,0-5-.91h-.28a14.47,14.47,0,0,0-5.31,1.16,16.82,16.82,0,0,0-4.6,2.79A16.69,16.69,0,0,1,126.63,28H127c-.41.12-.82.19-1.24.29a14.12,14.12,0,0,0-9.6,7.1,14.44,14.44,0,0,0-.66,1.37,15.43,15.43,0,0,0-.15,11.13c.34,1,.81,2,1.22,3l.15,0a23.32,23.32,0,0,1,2.41-7.68,15.7,15.7,0,0,0,.54,4.7,19.65,19.65,0,0,1,3-8A23.25,23.25,0,0,1,124.93,37a15.67,15.67,0,0,0-.63,4.25v.22s0-.11.07-.16A16.82,16.82,0,0,1,135.11,31c-6.62,2.94-8.61,8.32-8.79,12.15,0,.45,0,.87,0,1.28.12-.32.24-.62.38-.92a14.45,14.45,0,0,1,2.9-4.32c-.19.39-.42.77-.63,1.16a12.69,12.69,0,0,0-1.44,4,9.58,9.58,0,0,0,0,3.46,11.12,11.12,0,0,0,4.7,7,16.59,16.59,0,0,0,3.38,1.94,23.38,23.38,0,0,0,5.5,1.61l1.18.17,1.12.11a23.37,23.37,0,0,1-5.37-5.81,17.55,17.55,0,0,0,4.49,1.89,18.43,18.43,0,0,1-3.81-4.17,16.72,16.72,0,0,1-2.31-5.29c.49.44.84.8,1.23,1.14s.8.65,1.23.95.83.53,1.24.78c-4.54-5.56-3.64-11.39-1.21-15,.32.37.64.72,1,1.1l-.58.24c.75.94,1.48,1.84,2.21,2.74-.19.09-.33.14-.51.21.68,1,1.35,1.89,2,2.83l-.47.2,1.84,2.9-.42.21c.57,1,1.12,2,1.68,3l-.45.18c.52,1,1,2,1.54,3.05l-.46.17L147.7,53l-.52.11,1.28,3.25-.6,0L149,59.76l-.67,0c.35,1.14.7,2.25,1,3.38h-.76c.32,1.17.62,2.28.94,3.43l-.43,0-.4,0c.28,1.19.54,2.31.82,3.49l-.91-.11c.24,1.21.47,2.36.71,3.54l-1-.17c.22,1.23.41,2.38.62,3.57-.37-.06-.66-.12-1-.2.19,1.25.36,2.4.53,3.61L147.4,80c.16,1.27.3,2.44.45,3.64l-1.14-.34c.11,1.06.22,2.06.31,3.07,0,.2,0,.4.06.6h6.78c.1,0,.26-.06.29-.13s.11-.31.17-.46c.24-.67.48-1.34.71-2l-.64-.07c.35-1.17.71-2.3,1.09-3.51h-.69l1-3.57-.76,0c.32-1.21.62-2.38.93-3.59h-.81c.27-1.2.54-2.39.83-3.64-.36,0-.61.08-.89.1.25-1.25.49-2.46.73-3.71l-1,.16c.21-1.27.4-2.48.61-3.77l-1,.23c.17-1.29.33-2.51.48-3.81l-1.07.25c.11-1.3.22-2.53.34-3.83l-1.14.35c.06-1.3.13-2.55.19-3.88l-1.18.4V48.61l-1.24.5v-4l-1.19.51c-.11-1.33-.22-2.56-.33-3.86l-1.13.55c-.18-1.31-.35-2.55-.54-3.85l-1,.57c-.26-1.28-.5-2.52-.75-3.81l-1,.61c-.33-1.29-.65-2.49-1-3.77l-.89.61c-.2-.65-.39-1.24-.6-1.9a9.69,9.69,0,0,1,5.67,1.8,11.41,11.41,0,0,1,4.84,8h.17c.09-1.3.18-2.61.28-3.93A14.46,14.46,0,0,1,155.81,46l.18,0c.43-1.32.84-2.65,1.28-4a20.6,20.6,0,0,1,.6,6.69,19.69,19.69,0,0,0,3.62-7.37,11.81,11.81,0,0,0,.14-5.48c-.85-3.7-3.29-5.84-6.87-6.8-.52-.14-1-.23-1.55-.34h.68a13.9,13.9,0,0,1,4.56.81,11.82,11.82,0,0,0-8-3.22,14.13,14.13,0,0,0-5.38,1.15,14.09,14.09,0,0,1,8.17-2.63,16.67,16.67,0,0,1,5,.82,1,1,0,0,0,0-.16L155,23.6l1.2,0a17.89,17.89,0,0,1,8.8,2.21.65.65,0,0,0,.1-.15L162.27,23A22,22,0,0,1,168.86,25.54Z"/><path class="cls-5" d="M146.28,33.27a4.85,4.85,0,0,0-.61-.29l.15.57Z"/><path class="cls-6" d="M139.08,36.53l-.13-.15c0,.08,0,.16-.07.23Z"/><path class="cls-7" d="M143.7,31.51l-.44-.05.1.28Z"/><path class="cls-8" d="M34,119a26.5,26.5,0,0,1,3.22,1.55l.6-1.06a27.47,27.47,0,0,0-3.37-1.62Z"/><path class="cls-9" d="M45.34,140.21l.63,1A32.86,32.86,0,0,0,49,139.13l-.74-1A33.26,33.26,0,0,1,45.34,140.21Z"/><path class="cls-10" d="M40.17,122.5a32.55,32.55,0,0,1,2.74,2.31l.82-.88a31.81,31.81,0,0,0-2.82-2.41Z"/><path class="cls-11" d="M67,173.36c.65,1.08,1.34,2.11,2,3.09l1-.7c-.66-1-1.33-2-2-3Z"/><path class="cls-12" d="M38.89,143.41l.46,1.12c1.17-.47,2.3-1,3.37-1.5l-.53-1.1C41.14,142.44,40,142.94,38.89,143.41Z"/><path class="cls-13" d="M35.57,94.64q-1.47-1.08-2.91-2.19l-.74,1c1,.76,1.94,1.49,2.92,2.22Z"/><path class="cls-14" d="M27.07,117.29a24,24,0,0,1,3.52.61l.29-1.2a26.57,26.57,0,0,0-3.69-.62Z"/><path class="cls-15" d="M32,145.68l.31,1.18c1.14-.29,2.29-.64,3.53-1.06l-.37-1.15C34.28,145.06,33.15,145.4,32,145.68Z"/><path class="cls-16" d="M55.79,146.31c.43,1.14.86,2.27,1.26,3.41l1.14-.4c-.41-1.16-.83-2.3-1.26-3.44Z"/><path class="cls-17" d="M58.27,153.17c.41,1.14.81,2.3,1.22,3.44l1.15-.41c-.42-1.15-.82-2.29-1.22-3.45Z"/><path class="cls-18" d="M60.75,160c.42,1.15.87,2.29,1.34,3.42l1.13-.46c-.46-1.12-.9-2.25-1.33-3.38Z"/><path class="cls-19" d="M63.55,166.83c.52,1.16,1.07,2.27,1.62,3.31l1.07-.56c-.54-1-1.07-2.13-1.59-3.25Z"/><path class="cls-20" d="M21.49,83c.69,1,1.46,2,2.27,2.92l.93-.79c-.79-.93-1.54-1.88-2.22-2.84Z"/><path class="cls-21" d="M51.77,109.43l.25-.19c-.18-.25-.38-.51-.58-.76-.55-.72-1.13-1.44-1.76-2.13l-.9.81c.81.9,1.56,1.84,2.26,2.79Z"/><path class="cls-22" d="M53.18,133.06c-.39.57-.82,1.13-1.28,1.68-.41-.73-.84-1.45-1.27-2.14l-1,.63c.49.79,1,1.62,1.44,2.47l-.1.1.3.29.15.28.1-.05.32.32a21.15,21.15,0,0,0,2.38-2.9Z"/><path class="cls-23" d="M55.47,128.16a16.63,16.63,0,0,1-.62,1.8l1.13.46a19,19,0,0,0,.65-1.93,13.55,13.55,0,0,0,.39-1.7l-1.2-.2C55.73,127.12,55.61,127.65,55.47,128.16Z"/><path class="cls-24" d="M25,146.77,25,148a30.54,30.54,0,0,0,3.7-.35l-.19-1.21A28.4,28.4,0,0,1,25,146.77Z"/><path class="cls-25" d="M29.45,53,29,51.85a17.7,17.7,0,0,0-3.42,1.61l.64,1A16.44,16.44,0,0,1,29.45,53Z"/><path class="cls-26" d="M27.16,87.76l-.85.87q.63.62,1.29,1.2c.47.43,1,.85,1.46,1.27l.78-.93c-.48-.41-1-.82-1.43-1.24Z"/><path class="cls-27" d="M23.45,56.61l-.83-.89a18.48,18.48,0,0,0-2.5,2.81l1,.72A17.82,17.82,0,0,1,23.45,56.61Z"/><path class="cls-28" d="M32.87,52.25a16.7,16.7,0,0,1,1.75-.08,12.89,12.89,0,0,1,1.76.08l.12-1.2a14.43,14.43,0,0,0-1.85-.1,15.58,15.58,0,0,0-1.91.1Z"/><path class="cls-29" d="M47.6,130.24l1-.72c-.74-1-1.51-2-2.29-2.91l-.92.8C46.14,128.29,46.89,129.24,47.6,130.24Z"/><path class="cls-30" d="M154.05,122.61l.62-1a26.14,26.14,0,0,0-3.35-1.67l-.45,1.13A24.19,24.19,0,0,1,154.05,122.61Z"/><path class="cls-31" d="M43.67,53.26a18.69,18.69,0,0,0-3.48-1.46L39.84,53a18.5,18.5,0,0,1,3.25,1.37Z"/><path class="cls-32" d="M19.73,116.63l.31,1.18a20,20,0,0,1,3.49-.57l-.08-1.2A20.76,20.76,0,0,0,19.73,116.63Z"/><path class="cls-33" d="M18,76.46a29.11,29.11,0,0,0,1.54,3.39l1.08-.58A23.93,23.93,0,0,1,19.11,76Z"/><path class="cls-34" d="M43.54,102.22c1,.82,1.87,1.6,2.71,2.38l.84-.89c-.86-.79-1.76-1.6-2.77-2.43Z"/><path class="cls-35" d="M15.91,118.07A15.5,15.5,0,0,0,13,120l.76.93a14.8,14.8,0,0,1,2.68-1.74l.27-.14-.53-1.1Z"/><path class="cls-36" d="M17.82,69.18v-.07l-1.21.07A19.18,19.18,0,0,0,17,72.86l1.19-.24A18.38,18.38,0,0,1,17.82,69.18Z"/><path class="cls-37" d="M17.6,147a19.85,19.85,0,0,0,3.67.8l.16-1.2a19.23,19.23,0,0,1-3.46-.76Z"/><path class="cls-38" d="M11.06,143.33a16.4,16.4,0,0,0,3.09,2.21l.58-1.08a15.12,15.12,0,0,1-2.85-2Z"/><path class="cls-39" d="M11.34,123.42l-1-.74a18.73,18.73,0,0,0-2,3.19l1.08.53A18.9,18.9,0,0,1,11.34,123.42Z"/><path class="cls-40" d="M19.32,62.29l-1.11-.51A17.94,17.94,0,0,0,17,65.36l1.19.27A15.62,15.62,0,0,1,19.32,62.29Z"/><path class="cls-41" d="M8.25,136.62l-1.19.32a13.15,13.15,0,0,0,1.38,3.22l.17.26,1-.64-.16-.26A11.43,11.43,0,0,1,8.25,136.62Z"/><path class="cls-42" d="M8.26,129.7l-1.2-.29a16.18,16.18,0,0,0-.47,3.75H7.81A14.43,14.43,0,0,1,8.26,129.7Z"/><path class="cls-43" d="M54.1,139.1l-1.09.51c.34.75.68,1.5,1,2.25l.45,1.07,1.12-.46-.45-1.08C54.8,140.62,54.46,139.85,54.1,139.1Z"/><path class="cls-44" d="M128.18,191.39l.16,1.21c1.22-.16,2.45-.38,3.64-.63l-.24-1.2C130.56,191,129.36,191.24,128.18,191.39Z"/><path class="cls-45" d="M137.54,189.09c-.76.3-1.54.55-2.32.78l.35,1.17c.8-.24,1.61-.51,2.4-.8.36-.14.73-.27,1.09-.42l-.45-1.13C138.26,188.83,137.91,189,137.54,189.09Z"/><path class="cls-46" d="M122.11,191.78c-.38,0-.74,0-1.12,0l0,1.22h1c.89,0,1.79,0,2.66-.06l-.06-1.22C123.77,191.77,122.94,191.78,122.11,191.78Z"/><path class="cls-47" d="M141.9,187.23l.55,1.08c1.09-.53,2.19-1.14,3.25-1.77l-.64-1C144,186.11,143,186.7,141.9,187.23Z"/><path class="cls-48" d="M148.08,183.52l.71,1c1-.72,2-1.48,2.92-2.27l-.78-.93C150,182.1,149,182.83,148.08,183.52Z"/><path class="cls-49" d="M116.16,167.28a18.35,18.35,0,0,1,.11,1.95c0,.52,0,1.05-.07,1.57l1.21.12c0-.57.08-1.13.08-1.69a20.7,20.7,0,0,0-.11-2.08Z"/><path class="cls-50" d="M106.46,190.4c1.16.4,2.35.75,3.54,1.07l.31-1.18c-1.17-.31-2.33-.66-3.45-1Z"/><path class="cls-51" d="M110,183.23l.85.86a22.69,22.69,0,0,0,2.47-2.81l-1-.73A23.85,23.85,0,0,1,110,183.23Z"/><path class="cls-52" d="M113.62,192.26c1.21.2,2.44.39,3.66.5l.12-1.21c-1.19-.12-2.39-.28-3.58-.5Z"/><path class="cls-53" d="M158.35,173.49l1,.73c.73-1,1.43-2,2.09-3l-1-.66C159.75,171.53,159.07,172.53,158.35,173.49Z"/><path class="cls-54" d="M165.17,136.15c.1.26.19.53.28.78.3.87.57,1.74.79,2.63l1.18-.29c-.23-.93-.51-1.85-.82-2.74-.09-.27-.19-.54-.3-.8Z"/><path class="cls-55" d="M165.49,159.45c-.14.45-.28.91-.43,1.36l1.16.39c.14-.48.3-.94.43-1.41.22-.71.42-1.43.59-2.16l-1.18-.28C165.89,158.06,165.69,158.75,165.49,159.45Z"/><path class="cls-56" d="M166.76,153.82,168,154c.19-1.23.33-2.47.4-3.68l-1.21-.08C167.08,151.43,167,152.63,166.76,153.82Z"/><path class="cls-57" d="M166.92,143.09c.16,1.16.26,2.36.31,3.57l1.2,0a34.61,34.61,0,0,0-.3-3.7Z"/><path class="cls-58" d="M162.21,167.41l1.07.57c.59-1.09,1.12-2.2,1.61-3.34l-1.12-.47C163.29,165.26,162.77,166.36,162.21,167.41Z"/><path class="cls-59" d="M164.75,132.33a30.14,30.14,0,0,0-1.95-3.16l-1,.7a27.8,27.8,0,0,1,1.88,3Z"/><path class="cls-60" d="M160.45,126.27a29.77,29.77,0,0,0-2.72-2.56l-.78.94a26.17,26.17,0,0,1,2.6,2.45Z"/><path class="cls-61" d="M107.25,185.49a21.79,21.79,0,0,1-3,1.8l.53,1.1a24.4,24.4,0,0,0,3.23-1.9Z"/><path class="cls-62" d="M153.59,178.91l.86.86c.87-.85,1.72-1.75,2.54-2.68l-.91-.8C155.29,177.19,154.45,178.07,153.59,178.91Z"/><path class="cls-63" d="M96.42,152.18a16,16,0,0,1,3.48-.47l0-1.22a17.73,17.73,0,0,0-3.75.52Z"/><path class="cls-64" d="M83,188.34a30,30,0,0,0,3.51,1.26l.34-1.18a26.87,26.87,0,0,1-3.36-1.2Z"/><path class="cls-65" d="M84.75,171.48a23.33,23.33,0,0,0,1.53,3.42l1.07-.58a21,21,0,0,1-1.45-3.24Z"/><path class="cls-66" d="M99.68,187.44c1.08.58,2.2,1.13,3.34,1.62l.48-1.12c-1.09-.48-2.19-1-3.24-1.57Z"/><path class="cls-67" d="M115.28,178.09a19.48,19.48,0,0,0,1.4-3.48l-1.15-.35a19.61,19.61,0,0,1-1.33,3.28Z"/><path class="cls-68" d="M103.38,152.05c.29.06.6.14.89.23a14.78,14.78,0,0,1,2.4.95l.54-1.09a16.83,16.83,0,0,0-2.59-1c-.33-.1-.66-.18-1-.26Z"/><path class="cls-69" d="M71.25,179.38c.82,1,1.67,1.88,2.53,2.72l.85-.88c-.84-.82-1.66-1.69-2.44-2.62Z"/><path class="cls-70" d="M93.5,183.36a30.66,30.66,0,0,0,2.89,2.13l.13.07.54-1.08a31.92,31.92,0,0,1-2.8-2.06Z"/><path class="cls-71" d="M97.42,189.29l.16,1.2a23.41,23.41,0,0,0,3.65-.76l-.34-1.17A22.27,22.27,0,0,1,97.42,189.29Z"/><path class="cls-72" d="M90.13,190.4a27.57,27.57,0,0,0,3.71.31l0-1.22a26.68,26.68,0,0,1-3.55-.29Z"/><path class="cls-73" d="M77.34,183.58l-.76,1c.45.35.91.7,1.39,1s1.11.74,1.69,1.1l.62-1.05c-.56-.33-1.09-.68-1.62-1S77.76,183.92,77.34,183.58Z"/><path class="cls-74" d="M91.62,180a26.53,26.53,0,0,1-2.32-2.7l-1,.73a27.7,27.7,0,0,0,2.43,2.82Z"/><path class="cls-75" d="M53,112.93,53,113c.07.13.14.27.22.4a23.78,23.78,0,0,1,1.32,2.81l1.14-.45A29.38,29.38,0,0,0,54,112.37Z"/><path class="cls-76" d="M110.17,154.46l-.57.69c.41.33.8.69,1.19,1.06s.88.94,1.29,1.44l1-.77a19.19,19.19,0,0,0-2.65-2.68Z"/><path class="cls-77" d="M116.1,162.11a18.27,18.27,0,0,0-1-2.1l-.34.18-.73.39a19.79,19.79,0,0,1,1.38,3.26l1.16-.38Q116.37,162.78,116.1,162.11Z"/><path class="cls-78" d="M38.68,96.93a1.77,1.77,0,0,0-.17-.12l-.73,1c1,.72,2,1.45,2.92,2.18l.75-1q-1.26-1-2.52-1.89Z"/><path class="cls-79" d="M84.84,160.34l1.14.46a12.33,12.33,0,0,1,1.74-3l-1-.74A14.65,14.65,0,0,0,84.84,160.34Z"/><path class="cls-80" d="M89.4,154.35l.06.08.7.87a15.67,15.67,0,0,1,3-1.89l-.53-1.1a17.23,17.23,0,0,0-3.06,1.94A.57.57,0,0,0,89.4,154.35Z"/><path class="cls-81" d="M56.76,119.31l-1.18.27c.08.37.15.76.21,1.14a19.13,19.13,0,0,1,.26,2.36l.58,0,.64,0A20.27,20.27,0,0,0,56.76,119.31Z"/><path class="cls-82" d="M85.1,164.17,83.9,164a4.34,4.34,0,0,0-.05.53c0,.43-.06.9-.06,1.35a15.51,15.51,0,0,0,.11,1.91l1.21-.15A15,15,0,0,1,85,165.9c0-.47,0-.9.06-1.35C85.08,164.42,85.09,164.29,85.1,164.17Z"/><path class="cls-83" d="M149.3,127.85a13.64,13.64,0,0,0-4.48-8.07h0a13,13,0,0,0-2.07-1.4,13.8,13.8,0,0,0-2.24-1l-.67-.22a11,11,0,0,0-1.28-.33,14.29,14.29,0,0,0-2.47-.32,5.62,5.62,0,0,0-.58,0,12.76,12.76,0,0,0-2.07.17,11.89,11.89,0,0,0-2.4.67,12.47,12.47,0,0,0-2.19,1.1,15.65,15.65,0,0,0-2,1.53,10.41,10.41,0,0,0-.78.71,12.21,12.21,0,0,0-2.22,14.85l.34.63c.18.31.33.6.5.91a67.65,67.65,0,0,0,5.57,7.74L132,147l.52.63c.41.52.84,1,1.27,1.54.69.83,1.37,1.68,2.05,2.53l.88-1.07c1.59-2,3.2-3.92,4.79-5.89a57.1,57.1,0,0,0,6.31-9.11A11.42,11.42,0,0,0,149.3,127.85Zm-6.61,4.94a3,3,0,0,1-.17.36,6.92,6.92,0,0,1-1.41,2,7.28,7.28,0,0,1-2.7,1.72,7.57,7.57,0,0,1-2.6.46h-.18a6.85,6.85,0,0,1-2.42-.47,7,7,0,0,1-2.64-1.7,7.21,7.21,0,0,1-1.3-8.42,6.65,6.65,0,0,1,1.08-1.57h0a6.4,6.4,0,0,1,.66-.72,6.88,6.88,0,0,1,2.71-1.66v0a7.44,7.44,0,0,1,2.36-.39,1.54,1.54,0,0,1,.38,0,6.7,6.7,0,0,1,2,.38,7.13,7.13,0,0,1,2.16,1.19,7.36,7.36,0,0,1,1.8,2.12,7.13,7.13,0,0,1,1,3.59A7.25,7.25,0,0,1,142.69,132.79Z"/></svg>