<svg xmlns="http://www.w3.org/2000/svg" xmlns:xlink="http://www.w3.org/1999/xlink" viewBox="0 0 337.55 68"><defs><style>.cls-1{fill:url(#linear-gradient);}.cls-2{fill:url(#linear-gradient-2);}.cls-3{fill:url(#linear-gradient-3);}.cls-4{fill:url(#linear-gradient-4);}.cls-5{fill:url(#linear-gradient-5);}.cls-6{fill:url(#linear-gradient-6);}</style><linearGradient id="linear-gradient" x1="19.94" y1="72.62" x2="121.73" y2="-212.65" gradientUnits="userSpaceOnUse"><stop offset="0.01" stop-color="#433443"/><stop offset="0.5" stop-color="#5c495d"/><stop offset="1" stop-color="#79617b"/></linearGradient><linearGradient id="linear-gradient-2" x1="89.75" y1="97.53" x2="191.54" y2="-187.74" xlink:href="#linear-gradient"/><linearGradient id="linear-gradient-3" x1="137.35" y1="114.52" x2="239.13" y2="-170.76" xlink:href="#linear-gradient"/><linearGradient id="linear-gradient-4" x1="191.31" y1="133.77" x2="293.09" y2="-151.51" xlink:href="#linear-gradient"/><linearGradient id="linear-gradient-5" x1="234.36" y1="149.13" x2="336.15" y2="-136.15" xlink:href="#linear-gradient"/><linearGradient id="linear-gradient-6" x1="270.69" y1="162.09" x2="372.47" y2="-123.19" xlink:href="#linear-gradient"/></defs><g id="Layer_2" data-name="Layer 2"><g id="Layer_1-2" data-name="Layer 1"><path class="cls-1" d="M69,12.74h1.19q3.72,0,3.72,1.95,0,4.91-8.17,23.61L58.68,54.41q-1.29-17.17-2.54-26.67l-.66-4.82q-.82-6-1.35-11.86l-3.16,1L34.1,51.93,34,47.18q0-24-4.12-34.71Q25.11,0,15.65,0,8.27,0,0,12.05l1.48,1Q6.82,4.71,12.75,4.71q7.24,0,11,10.27t3.74,30.25L26.92,68l3.39-1L49,23.46a218.36,218.36,0,0,1,3.36,39.83L52.29,68l3.36-1,24.18-54.3h3l.4-2.33H69.45Z"/><path class="cls-2" d="M114.17,24.57q-8.48,0-15.65,9.35A32.75,32.75,0,0,0,91.34,54.3a16.1,16.1,0,0,0,2.88,9.78,8.65,8.65,0,0,0,7.2,3.92q8.89,0,16.08-9.2a32.78,32.78,0,0,0,7.18-20.65,15.46,15.46,0,0,0-3-9.76A9.14,9.14,0,0,0,114.17,24.57Zm-.41,32.81q-3.7,7.29-8.59,7.29-6.61,0-6.62-12.44a37.29,37.29,0,0,1,3.77-16.93q3.78-7.51,8.49-7.52,6.64,0,6.65,12.67A36.87,36.87,0,0,1,113.76,57.38Z"/><path class="cls-3" d="M175.89,63.87c-1.3,0-1.95-.81-1.95-2.41a44.45,44.45,0,0,1,.76-5.74L177.9,37a33.68,33.68,0,0,0,.56-5.51q0-7-5.41-7-4.49,0-9.67,5.95a58.1,58.1,0,0,0-9.31,15.74h-.49l1.61-9.45a44.83,44.83,0,0,0,.76-6.5q0-5.74-4.74-5.74-5.78,0-13,9l-.59,3.52q6.59-8.41,9.82-8.41c1.29,0,1.94.79,1.94,2.37a43.39,43.39,0,0,1-.76,5.74l-3.23,18.91L143,67.5l7-.46,2.4-13.66q11.17-23.14,17.46-23.15c1.32,0,2,1,2,3.1a20.72,20.72,0,0,1-.4,3.67l-3.19,18.73a43.94,43.94,0,0,0-.79,6.5c0,3.84,1.58,5.77,4.74,5.77q5.78,0,13-9l.63-3.55Q179.19,63.86,175.89,63.87Z"/><path class="cls-4" d="M258.62.8a20.7,20.7,0,0,0-5.93-.8q-7.87,0-14.4,6a27.87,27.87,0,0,0-5.93,7.48A56.13,56.13,0,0,0,228.31,25a36.54,36.54,0,0,0-10.51,1.16,19.68,19.68,0,0,0-7.25,4.58,39.77,39.77,0,0,0-8.81,12.66,35.08,35.08,0,0,0-3.41,14.43q0,10.14,7,10.14,4.56,0,9.76-6a54.17,54.17,0,0,0,9-15.69h.59L223,55.72a44.7,44.7,0,0,0-.79,6.5Q222.25,68,227,68q5.73,0,12.91-9l.63-3.56q-6.56,8.41-9.85,8.42-2,0-1.95-2.49a45.36,45.36,0,0,1,.79-5.66l5.18-30.31q2.1-12.24,4.77-16.7a8.67,8.67,0,0,1,7.94-4.46,15.3,15.3,0,0,1,6.66,2ZM225.81,39.61a80.6,80.6,0,0,1-9.34,15.8q-5.33,6.93-8.16,6.93c-2,0-3.06-2-3.06-6q0-8.31,4.25-18.71,3.58-8.8,9.55-8.81A17.56,17.56,0,0,1,227.29,31Z"/><path class="cls-5" d="M276.45,45.43q6.46-5.28,6.46-12.61a9.33,9.33,0,0,0-1.81-6,5.75,5.75,0,0,0-4.74-2.29q-8.08,0-15.19,9.5a33.18,33.18,0,0,0-7.12,20.28A15.66,15.66,0,0,0,257,64.19,9.11,9.11,0,0,0,264.56,68q7.38,0,17.86-8.5l.49-2.94q-8.76,7-14.86,7Q261,63.6,261,52.42l0-1.72A23.56,23.56,0,0,0,276.45,45.43Zm-11-10.89q3.69-6.1,7.65-6.11,3.64,0,3.65,5.86A12.39,12.39,0,0,1,272.63,44q-4.15,3.73-11.53,4.42A31.78,31.78,0,0,1,265.48,34.54Z"/><path class="cls-6" d="M333.43,24.57q-4.46,0-9.81,6.07a55,55,0,0,0-9.27,15.65h-.43l1.58-9.22a35.92,35.92,0,0,0,.6-6.19q0-6.31-4.75-6.31-5.6,0-13.21,9.52l-.59,3.4q6.48-8.64,10-8.64c1.32,0,2,1.1,2,3.29A28.89,28.89,0,0,1,309,37l-3.19,18.7L303.38,67.5l7-.46,2.41-14q10.68-21.9,17.1-21.9a5.8,5.8,0,0,1,3.29,1.49l4.39-6.92A7.39,7.39,0,0,0,333.43,24.57Z"/></g></g></svg>